<?xml version="1.0" standalone="no"?><!DOCTYPE svg PUBLIC "-//W3C//DTD SVG 1.1//EN" "http://www.w3.org/Graphics/SVG/1.1/DTD/svg11.dtd"><svg t="1718854799972" class="icon" viewBox="0 0 1061 1024" version="1.1" xmlns="http://www.w3.org/2000/svg" p-id="4415" xmlns:xlink="http://www.w3.org/1999/xlink" width="207.2265625" height="200"><path d="M468.762748 1023.997936a16.291255 16.291255 0 0 1-10.860837-4.018509L5.548077 627.088672a16.291255 16.291255 0 0 1 21.721673-24.599795l452.353834 392.890756a16.291255 16.291255 0 0 1-10.860836 28.618303z" fill="#040000" p-id="4416"></path><path d="M474.953424 1023.997936a16.291255 16.291255 0 0 1-9.177406-29.921604l570.193908-388.383508a16.291255 16.291255 0 1 1 18.354814 27.152091L484.130831 1021.228423a16.291255 16.291255 0 0 1-9.177407 2.769513zM16.408913 631.107181a16.291255 16.291255 0 0 1-12.924395-26.22892L462.246246 6.663395a16.291255 16.291255 0 1 1 25.84879 19.87533L29.333308 624.807896A16.291255 16.291255 0 0 1 16.408913 631.107181z" fill="#040000" p-id="4417"></path><path d="M1044.984421 632.301873a16.291255 16.291255 0 0 1-11.838312-5.050289L463.386634 27.842026A16.291255 16.291255 0 1 1 486.954649 5.360094l569.813779 599.409559a16.291255 16.291255 0 0 1-0.597346 23.024973 16.291255 16.291255 0 0 1-11.186661 4.507247z" fill="#040000" p-id="4418"></path><path d="M942.333226 630.482683l0.103178-32.582509 108.608363 0.342116-0.108608 32.582509zM804.145374 630.238314l-203.423465-0.65165v-32.582509l203.423465 0.65165z m-341.736216-1.086083l-203.423465-0.651651v-32.582509l203.423465 0.651651zM12.108022 627.533966l0.108608-32.582509 108.608364 0.342116-0.108608 32.582509z" fill="#040000" p-id="4419"></path><path d="M475.170641 1021.228423a16.291255 16.291255 0 0 1-16.291254-16.291254V16.60106a16.291255 16.291255 0 0 1 32.582509 0v988.336109a16.291255 16.291255 0 0 1-16.291255 16.291254z" fill="#040000" p-id="4420"></path></svg>